<svg xmlns="http://www.w3.org/2000/svg" version="1.1" xmlns:xlink="http://www.w3.org/1999/xlink" width="200" height="200"><svg xmlns="http://www.w3.org/2000/svg" version="1.1" xmlns:xlink="http://www.w3.org/1999/xlink" viewBox="0 0 200 200"><rect width="200" height="200" fill="url('#gradient')"></rect><defs><linearGradient id="SvgjsLinearGradient1001" gradientTransform="rotate(45 0.5 0.5)"><stop offset="0%" stop-color="#472027"></stop><stop offset="100%" stop-color="#192025"></stop></linearGradient></defs><g><g fill="#f3bd7d" transform="matrix(4.166365280289331,0,0,4.166365280289331,5.526887302803942,120.95611036966335)" stroke="#c06a3e" stroke-width="0"><path d="M4.50-14.22L4.50-2.64L10.47-2.64L10.47 0L1.07 0L1.07-14.22L4.50-14.22ZM11.36-4.82L11.35-5.38Q11.35-6.96 11.96-8.20Q12.58-9.43 13.73-10.10Q14.88-10.76 16.44-10.76L16.44-10.76Q18.81-10.76 20.18-9.29Q21.54-7.82 21.54-5.29L21.54-5.29L21.54-5.18Q21.54-2.71 20.17-1.25Q18.80 0.20 16.46 0.20L16.46 0.20Q14.20 0.20 12.83-1.16Q11.46-2.51 11.36-4.82L11.36-4.82ZM14.65-5.77L14.64-5.18Q14.64-3.71 15.10-3.03Q15.56-2.34 16.46-2.34L16.46-2.34Q18.21-2.34 18.25-5.05L18.25-5.05L18.25-5.38Q18.25-8.22 16.44-8.22L16.44-8.22Q14.79-8.22 14.65-5.77L14.65-5.77ZM22.61-5.24L22.61-5.36Q22.61-6.96 23.13-8.19Q23.66-9.42 24.65-10.09Q25.63-10.76 26.94-10.76L26.94-10.76Q28.59-10.76 29.52-9.65L29.52-9.65L29.64-10.57L32.63-10.57L32.63-0.40Q32.63 1.00 31.98 2.03Q31.33 3.06 30.10 3.61Q28.87 4.16 27.25 4.16L27.25 4.16Q26.08 4.16 25.00 3.72Q23.91 3.28 23.33 2.58L23.33 2.58L24.71 0.64Q25.63 1.73 27.13 1.73L27.13 1.73Q29.32 1.73 29.32-0.52L29.32-0.52L29.32-0.85Q28.37 0.20 26.92 0.20L26.92 0.20Q24.99 0.20 23.80-1.28Q22.61-2.76 22.61-5.24L22.61-5.24ZM25.91-5.16L25.91-5.16Q25.91-3.86 26.40-3.10Q26.88-2.34 27.76-2.34L27.76-2.34Q28.83-2.34 29.32-3.06L29.32-3.06L29.32-7.50Q28.84-8.22 27.78-8.22L27.78-8.22Q26.90-8.22 26.41-7.44Q25.91-6.65 25.91-5.16ZM34.09-4.82L34.08-5.38Q34.08-6.96 34.70-8.20Q35.31-9.43 36.46-10.10Q37.62-10.76 39.17-10.76L39.17-10.76Q41.54-10.76 42.91-9.29Q44.28-7.82 44.28-5.29L44.28-5.29L44.28-5.18Q44.28-2.71 42.91-1.25Q41.53 0.20 39.19 0.20L39.19 0.20Q36.93 0.20 35.57-1.16Q34.20-2.51 34.09-4.82L34.09-4.82ZM37.38-5.77L37.37-5.18Q37.37-3.71 37.83-3.03Q38.29-2.34 39.19-2.34L39.19-2.34Q40.95-2.34 40.99-5.05L40.99-5.05L40.99-5.38Q40.99-8.22 39.17-8.22L39.17-8.22Q37.52-8.22 37.38-5.77L37.38-5.77Z"></path></g></g></svg><style>@media (prefers-color-scheme: light) { :root { filter: none; } }
@media (prefers-color-scheme: dark) { :root { filter: none; } }
</style></svg>